<?xml version="1.0" encoding="utf-8"?>
<!-- Generator: Adobe Adobe Illustrator 24.2.0, SVG Export Plug-In . SVG Version: 6.00 Build 0)  -->
<svg version="1.1" id="Layer_1" xmlns="http://www.w3.org/2000/svg" xmlns:xlink="http://www.w3.org/1999/xlink" x="0px" y="0px"
	 width="1000px" height="1000px" viewBox="0 0 1000 1000" style="enable-background:new 0 0 1000 1000;" xml:space="preserve">
<style type="text/css">
	.st0{fill:url(#SVGID_1_);}
	.st1{fill:url(#SVGID_2_);}
	.st2{fill:url(#SVGID_3_);}
	.st3{fill:url(#SVGID_4_);}
	.st4{fill:url(#SVGID_5_);}
	.st5{fill:url(#SVGID_6_);}
	.st6{fill:url(#SVGID_7_);}
	.st7{fill:url(#SVGID_8_);}
	.st8{fill:url(#SVGID_9_);}
	.st9{fill:url(#SVGID_10_);}
	.st10{fill:url(#SVGID_11_);}
	.st11{fill:url(#SVGID_12_);}
</style>
<g>
	
		<linearGradient id="SVGID_1_" gradientUnits="userSpaceOnUse" x1="-3662.364" y1="1031.1886" x2="-3672.4624" y2="1182.3948" gradientTransform="matrix(0.5 -0.866 0.866 0.5 1157.9155 -3021.6548)">
		<stop  offset="0.1836" style="stop-color:#3E88FF"/>
		<stop  offset="0.8799" style="stop-color:#2741FF"/>
	</linearGradient>
	<polygon class="st0" points="211.32,833.33 355.66,750 355.66,583.33 211.32,666.67 	"/>
	<linearGradient id="SVGID_2_" gradientUnits="userSpaceOnUse" x1="234.3919" y1="404.869" x2="474.217" y2="593.0005">
		<stop  offset="0.2065" style="stop-color:#8FFFFF"/>
		<stop  offset="0.8807" style="stop-color:#4AC3FF"/>
	</linearGradient>
	<polygon class="st1" points="211.32,500 355.66,583.33 500,500 355.66,416.67 	"/>
	<linearGradient id="SVGID_3_" gradientUnits="userSpaceOnUse" x1="90.0543" y1="154.8691" x2="329.8795" y2="343.0005">
		<stop  offset="0.2065" style="stop-color:#8FFFFF"/>
		<stop  offset="0.8807" style="stop-color:#4AC3FF"/>
	</linearGradient>
	<polygon class="st2" points="66.99,250 211.32,333.33 355.66,250 211.32,166.67 	"/>
	
		<linearGradient id="SVGID_4_" gradientUnits="userSpaceOnUse" x1="-3373.689" y1="864.522" x2="-3383.7874" y2="1015.7281" gradientTransform="matrix(0.5 -0.866 0.866 0.5 1157.9155 -3021.6548)">
		<stop  offset="0.1836" style="stop-color:#3E88FF"/>
		<stop  offset="0.8799" style="stop-color:#2741FF"/>
	</linearGradient>
	<polygon class="st3" points="211.32,500 355.66,416.67 355.66,250 211.32,333.33 	"/>
	<linearGradient id="SVGID_5_" gradientUnits="userSpaceOnUse" x1="523.067" y1="571.5357" x2="762.8922" y2="759.6671">
		<stop  offset="0.2065" style="stop-color:#FF48E9"/>
		<stop  offset="0.8158" style="stop-color:#BC3EFF"/>
	</linearGradient>
	<polygon class="st4" points="500,666.67 644.34,750 788.67,666.67 644.34,583.33 	"/>
	
		<linearGradient id="SVGID_6_" gradientUnits="userSpaceOnUse" x1="-5865.5806" y1="-1637.0251" x2="-6169.0098" y2="-1608.0353" gradientTransform="matrix(-0.5 -0.866 0.866 -0.5 -879.9564 -5470.8545)">
		<stop  offset="0" style="stop-color:#CC31FF"/>
		<stop  offset="0.8496" style="stop-color:#8F10FF"/>
	</linearGradient>
	<polygon class="st5" points="788.67,666.67 788.67,500 644.34,416.67 644.34,583.33 	"/>
	<linearGradient id="SVGID_7_" gradientUnits="userSpaceOnUse" x1="55.1153" y1="313.6901" x2="536.0379" y2="969.2512">
		<stop  offset="0" style="stop-color:#50FFFA"/>
		<stop  offset="1" style="stop-color:#3386FF"/>
	</linearGradient>
	<polygon class="st6" points="355.66,416.67 355.66,583.33 211.32,500 211.32,333.33 66.99,250 66.99,416.67 66.99,583.33 
		66.99,750 211.32,833.33 211.32,666.67 355.66,750 355.66,916.67 500,1000 500,833.33 500,666.67 500,500 	"/>
	<linearGradient id="SVGID_8_" gradientUnits="userSpaceOnUse" x1="378.7294" y1="-11.7976" x2="618.5546" y2="176.3338">
		<stop  offset="0" style="stop-color:#FFF35C"/>
		<stop  offset="1" style="stop-color:#FFAD1D"/>
	</linearGradient>
	<polygon class="st7" points="355.66,83.33 500,166.67 644.34,83.33 500,0 	"/>
	
		<linearGradient id="SVGID_9_" gradientUnits="userSpaceOnUse" x1="-5432.5679" y1="-1720.3585" x2="-5735.9971" y2="-1691.3687" gradientTransform="matrix(-0.5 -0.866 0.866 -0.5 -879.9564 -5470.8545)">
		<stop  offset="0.0508" style="stop-color:#FFC23B"/>
		<stop  offset="0.9107" style="stop-color:#FF8017"/>
	</linearGradient>
	<polygon class="st8" points="500,333.33 500,166.67 355.66,83.33 355.66,250 	"/>
	
		<linearGradient id="SVGID_10_" gradientUnits="userSpaceOnUse" x1="-3085.0137" y1="1031.1886" x2="-3095.1123" y2="1182.3948" gradientTransform="matrix(0.5 -0.866 0.866 0.5 1157.9155 -3021.6548)">
		<stop  offset="0.0258" style="stop-color:#FF831D"/>
		<stop  offset="1" style="stop-color:#FF5317"/>
	</linearGradient>
	<polygon class="st9" points="500,333.33 644.34,250 644.34,83.33 500,166.67 	"/>
	<linearGradient id="SVGID_11_" gradientUnits="userSpaceOnUse" x1="456.7202" y1="186.1562" x2="827.7535" y2="477.2142">
		<stop  offset="0.2065" style="stop-color:#FF48E9"/>
		<stop  offset="0.8158" style="stop-color:#BC3EFF"/>
	</linearGradient>
	<polygon class="st10" points="788.67,166.67 644.34,250 500,333.33 355.66,416.67 500,500 644.34,416.67 788.67,333.33 933.01,250 
			"/>
	<linearGradient id="SVGID_12_" gradientUnits="userSpaceOnUse" x1="547.7848" y1="454.4295" x2="903.8505" y2="814.3969">
		<stop  offset="0" style="stop-color:#8F10FF"/>
		<stop  offset="0.9828" style="stop-color:#571AFF"/>
	</linearGradient>
	<path class="st11" d="M788.67,333.33l-144.34,83.33L500,500v166.67v166.67V1000l144.34-83.33l144.34-83.33L933.01,750V583.33
		V416.67V250L788.67,333.33z M788.67,666.67L644.34,750V583.33L788.67,500V666.67z"/>
</g>
</svg>
